<?xml version="1.0" encoding="UTF-8"?>
<svg width="1024px" height="1024px" viewBox="0 0 1024 1024" version="1.1" xmlns="http://www.w3.org/2000/svg" xmlns:xlink="http://www.w3.org/1999/xlink">
    <title>logo</title>
    <g id="logo" stroke="none" fill="none" fill-rule="evenodd" stroke-width="1">
        <g id="#fefefeff" fill="#FFFFFF">
            <path d="M330.53,207.505 C396.37,207.505 462.21,207.49 528.06,207.53 C538.06,207.64 548.09,207.17 558.05,208.24 C578.23,210.18 598.21,214.55 617.05,222.07 C645.05,233.76 670.62,251.36 690.99,273.89 C719.81,305.05 738.82,345.58 742.86,387.95 C747.57,428.49 740.14,470.64 720.44,506.51 C701.93,540.21 673.73,568.82 639.47,586.51 C627.77,592.41 615.6,597.53 602.83,600.6 C611.96,612.23 622.03,623.09 631.29,634.61 C666.72,676.07 702.12,717.58 737.02,759.47 C700.8,759.57 664.58,759.47 628.36,759.52 C625.61,757.06 623.55,753.8 621.14,750.97 C580.48,700.93 540.08,650.67 499.64,600.46 C497.21,597.11 494.17,594.26 491.93,590.78 C462.42,590.5 403.4,537.26 403.47,510.55 C432.97,510.59 462.46,510.56 491.96,510.58 C499.78,510.72 507.59,509.3 514.99,506.81 C525.45,503.03 534.76,495.41 539.38,485.15 C544.31,474.24 544.74,461.43 541.11,450.07 C537.9,437.85 528.38,427.82 516.84,422.96 C508.68,419.53 499.83,417.46 490.95,417.65 C441.51,417.57 392.07,417.7 342.63,417.6 C342.7,503.53 342.59,589.47 342.78,675.4 C397.29,675.2 451.81,675.49 506.32,675.25 C506.63,703.31 506.28,731.39 506.44,759.45 C448.96,759.548811 391.49,759.54 334.01,759.52 C307.61,759.41 281.2,759.75 254.82,759.34 C254.8,618.14 254.78,476.95 254.91,335.75 C334.95,335.66 415,335.72 495.04,335.72 C514.74,335.5 534.71,338.32 552.94,346.04 C568,352.6 581.75,362.09 593.4,373.65 C606.59,387.43 616.44,404.46 621.37,422.93 C626.98,443.41 628.29,465.17 624.52,486.11 C623.13,492.13 622.06,498.3 619.55,503.99 C632.94,491.62 643.24,476.06 649.87,459.1 C664.13,420.97 660.19,375.36 635.71,342.22 C629.22,334.21 622.45,326.24 614,320.22 C591.51,303.02 563.42,292.91 535.01,293.12 C466.87,293.12 330.59,236.05 330.53,207.505 Z" id="Path"></path>
        </g>
    </g>
</svg>